<svg width="12" height="14" viewBox="0 0 12 14" fill="none" xmlns="http://www.w3.org/2000/svg">
<path d="M7.10766 13.669L11.6537 9.06049C11.8712 8.85093 11.9961 8.56129 11.9999 8.2571C12.0038 7.95301 11.8864 7.66015 11.6743 7.44504C11.4623 7.22991 11.1735 7.11058 10.8735 7.1143C10.5736 7.11801 10.2877 7.24428 10.0809 7.46459L7.39761 10.1887L7.39761 1.12837C7.39761 0.725264 7.1854 0.352731 6.84104 0.151165C6.49667 -0.0503886 6.07244 -0.0503886 5.72807 0.151165C5.38369 0.352718 5.17149 0.725264 5.17149 1.12837L5.17149 10.1635L2.50478 7.46458C2.22138 7.19145 1.81738 7.0892 1.44055 7.19517C1.06373 7.30112 0.769436 7.59975 0.665224 7.98186C0.561092 8.36387 0.662334 8.77343 0.931944 9.06051L5.47799 13.6691C5.68625 13.8814 5.96973 14.0004 6.26508 13.9994C6.27433 14.0002 6.28358 14.0002 6.29273 13.9994C6.30188 14.0001 6.31113 14.0001 6.32038 13.9994C6.61553 13.9993 6.89863 13.8805 7.10747 13.6691L7.10766 13.669Z" fill="#282828"/>
</svg>
