<svg width="16" height="8" viewBox="0 0 16 8" fill="none" xmlns="http://www.w3.org/2000/svg">
<path d="M8 8C8.31567 7.99216 8.58625 7.8903 8.82976 7.67875L15.6933 1.58276C15.8918 1.40255 16 1.19099 16 0.932419C16 0.407444 15.531 4.69255e-09 14.9267 1.07387e-08C14.6381 1.36265e-08 14.3675 0.101861 14.1601 0.282076L8 5.7669L1.83991 0.282077C1.63247 0.101861 1.37091 1.46372e-07 1.07328 1.4935e-07C0.468997 1.55396e-07 5.79077e-09 0.407444 1.3252e-08 0.932419C1.68155e-08 1.18315 0.108231 1.40255 0.306652 1.58276L7.17926 7.67875C7.41375 7.89814 7.68433 8 8 8Z" fill="black"/>
</svg>
