<svg width="19" height="18" viewBox="0 0 19 18" fill="none" xmlns="http://www.w3.org/2000/svg">
<path d="M17.5953 2.03729L17.5953 2.03693L17.5718 2.01349L16.7863 1.22793C16.2007 0.64239 15.426 0.339941 14.651 0.339941C13.876 0.339941 13.1013 0.642386 12.5157 1.22793L1.80933 11.9343C1.59328 12.1504 1.4551 12.4262 1.41554 12.7225L1.41553 12.7225L1.41534 12.7241L0.903775 17.0907L0.903752 17.0907L0.903547 17.0929C0.861376 17.5353 1.19988 17.8967 1.62425 17.8967H1.69728V17.8974L1.70891 17.896L6.07551 17.3844L6.07711 17.3842C6.36979 17.3452 6.66607 17.2089 6.86697 16.9888L17.5712 6.28463C17.5713 6.28453 17.5714 6.28443 17.5715 6.28433C18.7546 5.11973 18.7615 3.22844 17.5953 2.03729ZM16.9261 4.15279C16.9431 4.55917 16.7926 4.93187 16.505 5.22264L16.4987 5.22896L16.2406 5.48705L13.3127 2.55913L13.5708 2.30104C13.8628 2.00901 14.2394 1.85534 14.6328 1.85534C15.0279 1.85534 15.421 2.01015 15.6927 2.29886L15.6926 2.29889L15.6948 2.30104L16.4803 3.0866C16.7724 3.37864 16.926 3.75525 16.926 4.14861H16.926L16.9261 4.15279ZM3.57443 12.2973L12.2393 3.63244L15.1672 6.56036L6.50235 15.2252L3.57443 12.2973ZM2.5244 16.2577L2.83163 13.719L5.0793 15.9667L2.5244 16.2577Z" fill="#808080" stroke="#808080" stroke-width="0.2"/>
</svg>
