<svg width="34" height="34" viewBox="0 0 34 34" fill="none" xmlns="http://www.w3.org/2000/svg">
<path d="M24.1429 17.7143V17.4762C24.1429 16.4242 23.29 15.5714 22.2381 15.5714H20.5714C19.388 15.5714 18.4286 16.5308 18.4286 17.7143C18.4286 18.8978 19.388 19.8571 20.5714 19.8571H22C23.1834 19.8571 24.1429 20.8166 24.1429 22C24.1429 23.1834 23.1834 24.1429 22 24.1429H20.5714C19.388 24.1429 18.4286 23.1834 18.4286 22M15.5714 14.8571V22C15.5714 23.1834 14.612 24.1429 13.4286 24.1429C12.2451 24.1429 11.2857 23.1834 11.2857 22M7 7H27V27H7V7Z" stroke="#1E1E1E" stroke-width="2"/>
</svg>
