<svg width="20" height="20" viewBox="0 0 24 24" fill="none" xmlns="http://www.w3.org/2000/svg">
<path d="M11.25 9.874C11.25 10.2882 11.5858 10.624 12 10.624C12.4142 10.624 12.75 10.2882 12.75 9.874H11.25ZM12.75 4C12.75 3.58579 12.4142 3.25 12 3.25C11.5858 3.25 11.25 3.58579 11.25 4H12.75ZM9.31082 6.66156C9.68779 6.48991 9.85422 6.04515 9.68256 5.66818C9.51091 5.29121 9.06615 5.12478 8.68918 5.29644L9.31082 6.66156ZM5 12.16L4.2499 12.1561L4.25005 12.1687L5 12.16ZM12 19L12.0086 18.25C12.0029 18.25 11.9971 18.25 11.9914 18.25L12 19ZM19 12.16L19.7501 12.1687L19.75 12.1561L19 12.16ZM15.3108 5.29644C14.9338 5.12478 14.4891 5.29121 14.3174 5.66818C14.1458 6.04515 14.3122 6.48991 14.6892 6.66156L15.3108 5.29644ZM12.75 9.874V4H11.25V9.874H12.75ZM8.68918 5.29644C5.99843 6.52171 4.2655 9.19951 4.25001 12.1561L5.74999 12.1639C5.76242 9.79237 7.15246 7.6444 9.31082 6.66156L8.68918 5.29644ZM4.25005 12.1687C4.29935 16.4046 7.77278 19.7986 12.0086 19.75L11.9914 18.25C8.58384 18.2892 5.78961 15.5588 5.74995 12.1513L4.25005 12.1687ZM11.9914 19.75C16.2272 19.7986 19.7007 16.4046 19.7499 12.1687L18.2501 12.1513C18.2104 15.5588 15.4162 18.2892 12.0086 18.25L11.9914 19.75ZM19.75 12.1561C19.7345 9.19951 18.0016 6.52171 15.3108 5.29644L14.6892 6.66156C16.8475 7.6444 18.2376 9.79237 18.25 12.1639L19.75 12.1561Z" fill="#282828" stroke="#282828" stroke-width="1"/>
</svg>
