<svg width="34" height="34" viewBox="0 0 34 34" fill="none" xmlns="http://www.w3.org/2000/svg">
<path d="M27.1813 9.62168L18.0741 4.15957C17.7469 3.97308 17.3769 3.875 17.0003 3.875C16.6238 3.875 16.2537 3.97308 15.9266 4.15957L6.81878 9.62109C6.49056 9.82223 6.21976 10.1046 6.03254 10.441C5.84533 10.7773 5.74802 11.1563 5.75003 11.5412V22.4496C5.74806 22.8348 5.84537 23.214 6.03257 23.5506C6.21976 23.8872 6.49054 24.1699 6.81878 24.3715L9.20706 25.7977L9.22054 25.8053C10.4264 26.4223 10.8881 26.4223 11.4231 26.4223C13.3063 26.4223 14.4764 25.2035 14.4764 23.2412V12.6645C14.4775 12.5324 14.4262 12.4053 14.3337 12.3111C14.2412 12.2168 14.1151 12.1631 13.983 12.1617H12.6717C12.5397 12.1631 12.4136 12.2168 12.3211 12.3111C12.2286 12.4053 12.1773 12.5324 12.1784 12.6645V23.2412C12.1831 23.3926 12.1487 23.5427 12.0784 23.6769C12.008 23.8111 11.9042 23.9248 11.777 24.007C11.4313 24.218 10.9291 24.1734 10.3625 23.8811L8.07386 22.5035C8.0651 22.4975 8.05795 22.4895 8.05304 22.4801C8.04813 22.4707 8.04562 22.4602 8.04573 22.4496V11.6953C8.04611 11.683 8.04945 11.6709 8.05546 11.6601C8.06148 11.6492 8.07 11.64 8.0803 11.6332L16.9772 6.18398C16.9838 6.18068 16.9911 6.17896 16.9986 6.17896C17.006 6.17896 17.0133 6.18068 17.02 6.18398L25.9221 11.6332C25.9322 11.6406 25.9404 11.6503 25.946 11.6615C25.9517 11.6727 25.9545 11.6851 25.9543 11.6977V22.4496C25.9545 22.4607 25.9523 22.4717 25.9477 22.4819C25.9432 22.492 25.9364 22.501 25.928 22.5082L17.0182 27.8197C17.003 27.825 16.9865 27.825 16.9713 27.8197L14.6961 26.4686C14.6286 26.4244 14.5506 26.3989 14.47 26.3947C14.3894 26.3905 14.3091 26.4077 14.2373 26.4445L14.2174 26.4563C13.5893 26.8283 13.4205 26.925 12.8381 27.1371C12.7432 27.1717 12.52 27.2543 12.5006 27.4752C12.4813 27.6961 12.6934 27.8531 12.8821 27.9627L15.9231 29.8301C16.2471 30.0242 16.6176 30.1268 16.9953 30.1271H17.0293C17.3976 30.1214 17.7579 30.0189 18.0741 29.8301L27.1813 24.3732C27.5093 24.1711 27.7799 23.888 27.9671 23.5511C28.1543 23.2143 28.2517 22.835 28.25 22.4496V11.5412C28.2519 11.1564 28.1545 10.7776 27.9673 10.4413C27.7801 10.1051 27.5094 9.82281 27.1813 9.62168Z" fill="#1E1E1E"/>
<path d="M20.0399 20.6355C17.855 20.6355 17.3891 20.025 17.2509 19.0395C17.2353 18.9221 17.1781 18.8143 17.0897 18.7355C17.0013 18.6568 16.8876 18.6125 16.7692 18.6105H15.6091C15.4783 18.6133 15.354 18.6678 15.2633 18.762C15.1726 18.8562 15.1229 18.9825 15.1251 19.1133C15.1251 19.9676 15.4251 22.7561 20.0423 22.7561C21.4708 22.7561 22.6591 22.4221 23.4776 21.7898C24.2962 21.1576 24.7344 20.2377 24.7344 19.1414C24.7344 16.9412 23.2989 16.3389 20.4717 15.9451C17.5977 15.5455 17.5977 15.3422 17.5977 14.8969C17.5977 14.5764 17.5977 13.8258 19.6755 13.8258C21.1538 13.8258 21.9454 14.0127 22.1985 14.9977C22.2209 15.1069 22.28 15.2051 22.3658 15.2762C22.4517 15.3473 22.5593 15.3869 22.6708 15.3885H23.835C23.9036 15.3878 23.9713 15.3725 24.0336 15.3436C24.0958 15.3147 24.1512 15.2729 24.196 15.2209C24.2855 15.1164 24.3301 14.9808 24.3202 14.8436C24.1696 12.7605 22.6467 11.7041 19.6772 11.7041C16.9784 11.7041 15.3676 12.9199 15.3676 14.9561C15.3676 17.1885 17.037 17.8195 19.5448 18.0809C22.4745 18.3838 22.4745 18.8256 22.4745 19.2158C22.4762 19.824 22.2237 20.6355 20.0399 20.6355Z" fill="#1E1E1E"/>
</svg>
