<svg width="34" height="34" viewBox="0 0 34 34" fill="none" xmlns="http://www.w3.org/2000/svg">
<path d="M17.007 14.7869C17.5221 14.787 18.0257 14.9394 18.4544 15.225C18.883 15.5106 19.2176 15.9167 19.416 16.3921C19.6144 16.8675 19.6677 17.3909 19.5692 17.8965C19.4707 18.4022 19.2248 18.8673 18.8625 19.2335C18.5002 19.5997 18.0377 19.8505 17.5332 19.9543C17.0286 20.0582 16.5046 20.0105 16.0272 19.8172C15.5497 19.6239 15.1401 19.2936 14.8499 18.868C14.5597 18.4424 14.402 17.9404 14.3965 17.4254C14.3946 17.0807 14.4607 16.7391 14.5909 16.4199C14.7211 16.1008 14.9129 15.8105 15.1553 15.5655C15.3977 15.3205 15.686 15.1256 16.0037 14.992C16.3214 14.8584 16.6623 14.7888 17.007 14.7869ZM10.5435 28.5933C11.423 29.1238 13.3355 28.3141 15.5691 26.2201C14.8226 25.3718 14.119 24.4866 13.4611 23.5678C12.3352 23.4416 11.2168 23.2552 10.1107 23.0094C9.39879 25.9968 9.66403 28.0489 10.5435 28.5933ZM11.5347 20.5803L11.1298 19.8684C10.972 20.2605 10.8368 20.6613 10.725 21.0689C11.1019 21.1527 11.5207 21.2225 11.9535 21.2923L11.5347 20.5803ZM20.6645 19.5194L21.7953 17.4254L20.6645 15.3314C20.2457 14.5915 19.799 13.9354 19.3941 13.2792C18.6403 13.2374 17.8446 13.2374 17.007 13.2374C16.1694 13.2374 15.3737 13.2374 14.6198 13.2374C14.215 13.8935 13.7683 14.5496 13.3495 15.2895L12.2187 17.4254L13.3495 19.5194C13.7683 20.2592 14.215 20.9154 14.6198 21.5715C15.3737 21.5715 16.1694 21.5715 17.007 21.5715C17.8446 21.5715 18.6403 21.5715 19.3941 21.5715C19.799 20.9154 20.2457 20.2592 20.6645 19.5194ZM17.007 10.1383C16.7417 10.4454 16.4625 10.7664 16.1833 11.1434H17.8306C17.5514 10.7664 17.2722 10.4454 17.007 10.1383ZM17.007 24.7125C17.2722 24.4053 17.5514 24.0843 17.8306 23.7074H16.1833C16.4625 24.0843 16.7417 24.4053 17.007 24.7125ZM23.4565 6.25737C22.591 5.7269 20.6645 6.53657 18.4449 8.63057C19.1914 9.47892 19.8949 10.3642 20.5528 11.283C21.6778 11.3906 22.7962 11.5584 23.9032 11.7855C24.6152 8.79809 24.3499 6.74597 23.4565 6.20153M22.4793 14.2146L22.8841 14.9265C23.0419 14.5344 23.1771 14.1336 23.289 13.726C22.9121 13.6422 22.4933 13.5724 22.0605 13.5026L22.4793 14.2146ZM24.5035 4.44258C26.5556 5.61522 26.779 8.70037 25.8995 12.302C29.4453 13.349 32 15.094 32 17.4393C32 19.7846 29.4453 21.5296 25.8995 22.5766C26.765 26.1783 26.5416 29.2634 24.5035 30.4361C22.4653 31.6087 19.6873 30.2685 17.007 27.7139C14.3267 30.2685 11.5486 31.6087 9.49651 30.4361C7.44439 29.2634 7.23499 26.2481 8.10051 22.5766C4.55468 21.5296 2 19.7846 2 17.4393C2 15.094 4.55468 13.3351 8.10051 12.2881C7.23499 8.68641 7.45835 5.60126 9.49651 4.42862C11.5347 3.25598 14.3267 4.59614 17.007 7.15081C19.6873 4.59614 22.4653 3.25598 24.5035 4.42862M24.0987 17.4254C24.5835 18.453 25.0122 19.5062 25.383 20.5803C28.3146 19.7008 29.9618 18.4444 29.9618 17.4254C29.9618 16.4063 28.2727 15.1499 25.383 14.2704C25.0122 15.3445 24.5835 16.3977 24.0987 17.4254ZM9.91531 17.4254C9.43048 16.3977 9.00174 15.3445 8.63099 14.2704C5.6994 15.1499 4.05212 16.4063 4.05212 17.4254C4.05212 18.4444 5.74128 19.7008 8.63099 20.5803C9.00174 19.5062 9.43048 18.453 9.91531 17.4254ZM22.4793 20.5803L22.0605 21.2923C22.4933 21.2923 22.9121 21.1527 23.289 21.0689C23.1771 20.6613 23.0419 20.2605 22.8841 19.8684L22.4793 20.5803ZM18.403 26.2201C20.6226 28.3141 22.591 29.1238 23.4146 28.5933C24.2383 28.0629 24.5733 26.0526 23.8613 23.0094C22.7543 23.2365 21.6359 23.4043 20.5109 23.5119C19.8546 24.4498 19.151 25.3537 18.403 26.2201ZM11.5347 14.2704L11.9535 13.5584C11.5207 13.5584 11.1019 13.698 10.725 13.7818C10.8368 14.1894 10.972 14.5903 11.1298 14.9824L11.5347 14.2704ZM15.611 8.63057C13.3495 6.53657 11.423 5.7269 10.5435 6.25737C9.66403 6.78785 9.39879 8.79809 10.1107 11.8414C11.2178 11.6142 12.3362 11.4465 13.4611 11.3388C14.1311 10.4 14.8486 9.49606 15.611 8.63057Z" fill="#1E1E1E"/>
</svg>
