<svg width="34" height="34" viewBox="0 0 34 34" fill="none" xmlns="http://www.w3.org/2000/svg">
<path fill-rule="evenodd" clip-rule="evenodd" d="M6.0625 9.5C6.0625 7.57289 7.60036 6.08059 9.50968 5.12594C11.475 4.14325 14.1246 3.5625 17 3.5625C19.8754 3.5625 22.525 4.14325 24.4904 5.12594C26.3996 6.08059 27.9375 7.57289 27.9375 9.5V24.5C27.9375 26.4271 26.3996 27.9194 24.4904 28.874C22.525 29.8568 19.8754 30.4375 17 30.4375C14.1246 30.4375 11.475 29.8568 9.50968 28.874C7.60036 27.9194 6.0625 26.4271 6.0625 24.5V9.5ZM7.9375 9.5C7.9375 8.66569 8.63821 7.65799 10.3482 6.80299C12.0021 5.97604 14.3526 5.4375 17 5.4375C19.6475 5.4375 21.9979 5.97604 23.6517 6.80299C25.3617 7.65799 26.0625 8.66569 26.0625 9.5C26.0625 10.3343 25.3617 11.342 23.6517 12.197C21.9979 13.024 19.6475 13.5625 17 13.5625C14.3526 13.5625 12.0021 13.024 10.3482 12.197C8.63821 11.342 7.9375 10.3343 7.9375 9.5ZM7.9375 24.5C7.9375 25.3343 8.63821 26.342 10.3482 27.197C12.0021 28.024 14.3526 28.5625 17 28.5625C19.6475 28.5625 21.9979 28.024 23.6517 27.197C25.3617 26.342 26.0625 25.3343 26.0625 24.5V20.384C25.5916 20.7596 25.0574 21.0905 24.4904 21.374C22.525 22.3567 19.8754 22.9375 17 22.9375C14.1246 22.9375 11.475 22.3567 9.50968 21.374C8.94268 21.0905 8.40844 20.7596 7.9375 20.384V24.5ZM26.0625 12.884V17C26.0625 17.8343 25.3617 18.842 23.6517 19.697C21.9979 20.524 19.6475 21.0625 17 21.0625C14.3526 21.0625 12.0021 20.524 10.3482 19.697C8.63821 18.842 7.9375 17.8343 7.9375 17V12.884C8.40844 13.2597 8.94268 13.5906 9.50968 13.8741C11.475 14.8568 14.1246 15.4375 17 15.4375C19.8754 15.4375 22.525 14.8568 24.4904 13.8741C25.0574 13.5906 25.5916 13.2597 26.0625 12.884Z" fill="#1E1E1E"/>
</svg>
