<svg width="34" height="34" viewBox="0 0 34 34" fill="none" xmlns="http://www.w3.org/2000/svg">
<path d="M6 17.5C6 12.0788 6 9.36827 7.68414 7.68414C9.36827 6 12.0788 6 17.5 6C22.9211 6 25.6318 6 27.3158 7.68414C29 9.36827 29 12.0788 29 17.5C29 22.9211 29 25.6318 27.3158 27.3158C25.6318 29 22.9211 29 17.5 29C12.0788 29 9.36827 29 7.68414 27.3158C6 25.6318 6 22.9211 6 17.5Z" stroke="#1E1E1E" stroke-width="2.2"/>
<path d="M12 20L13.9766 17.3046C14.7598 16.2366 15.1515 15.7025 15.6666 15.7025C16.1819 15.7025 16.5735 16.2366 17.3568 17.3046L17.6432 17.6954C18.4265 18.7634 18.8181 19.2975 19.3334 19.2975C19.8485 19.2975 20.2402 18.7634 21.0234 17.6954L23 15" stroke="#1E1E1E" stroke-width="2.2" stroke-linecap="round"/>
</svg>
