<svg width="34" height="34" viewBox="0 0 34 34" fill="none" xmlns="http://www.w3.org/2000/svg">
<g clip-path="url(#clip0_2055_1513)">
<mask id="path-1-outside-1_2055_1513" maskUnits="userSpaceOnUse" x="4.94189" y="1.0293" width="24" height="32" fill="black">
<rect fill="white" x="4.94189" y="1.0293" width="24" height="32"/>
<path d="M13.3624 14.2091C13.0853 13.5965 12.961 12.8819 13.1727 12.2327C13.3844 11.569 13.8585 11.0366 14.3325 10.5406C15.6524 9.22045 17.2789 8.25049 18.5698 6.90863C19.2845 6.17193 19.8752 5.28945 20.0793 4.27561C20.2471 3.53176 20.167 2.766 20.0139 2.0293C20.6994 2.80971 20.9255 3.92557 20.7285 4.93209C20.5171 6.06248 19.8897 7.06162 19.1532 7.92219C18.5625 8.61518 17.8841 9.22777 17.1767 9.79678C16.3526 10.4605 15.5432 11.1751 15.0254 12.1087C14.5876 12.8671 14.4855 13.8007 14.7846 14.6248C15.2733 16.0396 16.4109 17.0899 17.031 18.4245C16.3452 17.8191 15.6744 17.192 15.047 16.5284C14.3908 15.8282 13.7708 15.0844 13.3624 14.2091ZM17.0819 13.1005C16.958 14.2602 17.5631 15.3541 18.2853 16.2148C18.6353 16.6013 18.9343 17.0753 18.9488 17.6151C18.9635 18.3369 18.5553 19.0081 18.0298 19.482C18.154 19.4676 18.2415 19.358 18.3436 19.2997C19.1313 18.7965 19.8896 18.162 20.2761 17.2943C20.5314 16.7035 20.4731 16.0032 20.1377 15.4561C19.7437 14.8143 19.2261 14.2454 18.9198 13.5454C18.7518 13.1516 18.6935 12.6921 18.8321 12.2764C19.0146 11.7149 19.4083 11.2554 19.8241 10.8542C20.9691 9.76766 22.3547 8.99428 23.6822 8.14842C22.0047 8.62971 20.3492 9.29346 18.9343 10.3365C18.0372 11.0074 17.2059 11.9409 17.0819 13.1005ZM25.0535 18.5851C25.8485 18.6289 26.6286 19.2123 26.7746 20.0146C26.9133 20.7075 26.5779 21.3929 26.1474 21.918C25.4399 22.764 24.4844 23.3694 23.522 23.8873C23.4269 23.9454 23.3468 24.0184 23.2738 24.0987C24.5429 23.7777 25.8118 23.2966 26.8403 22.4724C27.4089 21.9983 27.9122 21.3709 28.0217 20.6197C28.1238 19.9707 27.8541 19.2997 27.3726 18.8694C26.7891 18.3368 25.9652 18.1401 25.1919 18.2422C24.747 18.3005 24.2584 18.3953 23.9522 18.7673C24.317 18.6946 24.6741 18.5486 25.0535 18.5851ZM9.21989 20.6707C10.1751 20.926 11.1598 20.999 12.1371 21.0647C13.0123 21.123 13.8876 21.1377 14.7701 21.1303C17.0455 21.0941 19.3355 20.9407 21.5672 20.4448C21.7786 20.3939 22.0121 20.3574 22.2019 20.2261C22.5738 19.9853 22.982 19.7956 23.3833 19.606C21.5672 19.8978 19.7439 20.146 17.9061 20.2626C16.0463 20.3792 14.1718 20.4522 12.3049 20.3282C11.7725 20.2773 11.2254 20.2479 10.7296 20.0436C10.6127 19.9926 10.4522 19.8907 10.5105 19.7373C10.62 19.5404 10.8388 19.4457 11.0284 19.3436C11.8308 18.9643 12.7059 18.7529 13.5593 18.5049C12.0932 18.4829 10.6345 18.8548 9.29284 19.4311C8.99372 19.577 8.65827 19.6936 8.41769 19.9416C8.32265 20.0435 8.32265 20.2189 8.43216 20.3062C8.65101 20.5031 8.94257 20.5906 9.21989 20.6707ZM21.035 22.6766C19.7586 22.9027 18.4748 23.1144 17.1838 23.1798C15.769 23.2746 14.3541 23.1943 12.9539 23.0485C12.6841 23.012 12.4142 22.9684 12.1736 22.8444C12.0496 22.7714 11.9257 22.6548 11.933 22.5014C11.9475 22.2608 12.1516 22.0932 12.2976 21.9181C11.8455 22.0786 11.3933 22.2461 11.014 22.5455C10.8534 22.6695 10.6931 22.8662 10.7367 23.085C10.8026 23.3403 11.0505 23.4934 11.2693 23.61C11.8089 23.8873 12.4142 24.0112 13.0052 24.1206C14.5 24.3614 16.0243 24.3687 17.5267 24.2664C19.117 24.1425 20.6994 23.88 22.2382 23.4277C21.8007 23.231 21.3849 23.0046 21.035 22.6766ZM13.0196 25.2003C12.6112 25.3169 12.1954 25.4555 11.86 25.7251C11.692 25.8564 11.5609 26.0827 11.6412 26.2942C11.7433 26.564 11.9986 26.7247 12.2391 26.8628C12.8665 27.2059 13.5738 27.3661 14.2666 27.4903C15.8349 27.7381 17.4465 27.7017 19.0073 27.4246C19.9335 27.2495 20.8598 27.0015 21.7203 26.6152C21.1587 26.3817 20.6119 26.1191 20.0868 25.8129C19.1751 25.9733 18.256 26.1412 17.3225 26.1995C16.0901 26.2943 14.8428 26.1921 13.6103 26.039C13.3185 25.9733 12.9539 25.9442 12.757 25.6889C12.6551 25.4772 12.8883 25.324 13.0196 25.2003ZM22.9967 29.8896C24.0177 29.6784 25.0462 29.4373 25.9796 28.9634C26.2712 28.7954 26.6286 28.6131 26.7237 28.2632C26.7746 27.9278 26.4245 27.7527 26.1766 27.614C26.3297 27.7894 26.4318 28.0445 26.2785 28.2486C26.0232 28.5915 25.5859 28.7227 25.1992 28.854C23.9887 29.1968 22.7341 29.3354 21.487 29.474C18.1832 29.773 14.8574 29.846 11.5537 29.5688C10.4451 29.452 9.31446 29.3281 8.25702 28.9343C8.08944 28.8613 7.83415 28.7883 7.83415 28.5621C7.8996 28.3656 8.08944 28.2559 8.25702 28.1611C9.01552 27.7746 9.86155 27.563 10.7075 27.512C10.4598 27.3661 10.168 27.3516 9.88358 27.3589C9.17601 27.3808 8.48319 27.563 7.81235 27.7894C7.23614 28.0006 6.6454 28.2341 6.18579 28.6572C6.00351 28.8175 5.83593 29.1237 6.0253 29.3427C6.3171 29.6564 6.76938 29.7365 7.17022 29.8313C9.41659 30.2179 11.692 30.4364 13.9677 30.5168C16.9871 30.6045 20.0283 30.4732 22.9967 29.8896ZM25.987 30.2836C24.6157 30.7211 23.1937 30.9617 21.7786 31.1587C19.3355 31.465 16.8703 31.5598 14.4125 31.487C12.9174 31.4287 11.4224 31.3266 9.94903 31.0784C10.2918 31.3118 10.7149 31.3846 11.1088 31.4942C12.7645 31.8443 14.4636 31.9099 16.1485 31.9609C18.6206 32.0047 21.093 31.9099 23.5291 31.5233C24.6816 31.3194 25.8411 31.0713 26.8765 30.5315C27.4165 30.2471 27.9636 29.8093 28.058 29.175C27.5112 29.7583 26.7237 30.0283 25.987 30.2836Z"/>
</mask>
<path d="M13.3624 14.2091C13.0853 13.5965 12.961 12.8819 13.1727 12.2327C13.3844 11.569 13.8585 11.0366 14.3325 10.5406C15.6524 9.22045 17.2789 8.25049 18.5698 6.90863C19.2845 6.17193 19.8752 5.28945 20.0793 4.27561C20.2471 3.53176 20.167 2.766 20.0139 2.0293C20.6994 2.80971 20.9255 3.92557 20.7285 4.93209C20.5171 6.06248 19.8897 7.06162 19.1532 7.92219C18.5625 8.61518 17.8841 9.22777 17.1767 9.79678C16.3526 10.4605 15.5432 11.1751 15.0254 12.1087C14.5876 12.8671 14.4855 13.8007 14.7846 14.6248C15.2733 16.0396 16.4109 17.0899 17.031 18.4245C16.3452 17.8191 15.6744 17.192 15.047 16.5284C14.3908 15.8282 13.7708 15.0844 13.3624 14.2091ZM17.0819 13.1005C16.958 14.2602 17.5631 15.3541 18.2853 16.2148C18.6353 16.6013 18.9343 17.0753 18.9488 17.6151C18.9635 18.3369 18.5553 19.0081 18.0298 19.482C18.154 19.4676 18.2415 19.358 18.3436 19.2997C19.1313 18.7965 19.8896 18.162 20.2761 17.2943C20.5314 16.7035 20.4731 16.0032 20.1377 15.4561C19.7437 14.8143 19.2261 14.2454 18.9198 13.5454C18.7518 13.1516 18.6935 12.6921 18.8321 12.2764C19.0146 11.7149 19.4083 11.2554 19.8241 10.8542C20.9691 9.76766 22.3547 8.99428 23.6822 8.14842C22.0047 8.62971 20.3492 9.29346 18.9343 10.3365C18.0372 11.0074 17.2059 11.9409 17.0819 13.1005ZM25.0535 18.5851C25.8485 18.6289 26.6286 19.2123 26.7746 20.0146C26.9133 20.7075 26.5779 21.3929 26.1474 21.918C25.4399 22.764 24.4844 23.3694 23.522 23.8873C23.4269 23.9454 23.3468 24.0184 23.2738 24.0987C24.5429 23.7777 25.8118 23.2966 26.8403 22.4724C27.4089 21.9983 27.9122 21.3709 28.0217 20.6197C28.1238 19.9707 27.8541 19.2997 27.3726 18.8694C26.7891 18.3368 25.9652 18.1401 25.1919 18.2422C24.747 18.3005 24.2584 18.3953 23.9522 18.7673C24.317 18.6946 24.6741 18.5486 25.0535 18.5851ZM9.21989 20.6707C10.1751 20.926 11.1598 20.999 12.1371 21.0647C13.0123 21.123 13.8876 21.1377 14.7701 21.1303C17.0455 21.0941 19.3355 20.9407 21.5672 20.4448C21.7786 20.3939 22.0121 20.3574 22.2019 20.2261C22.5738 19.9853 22.982 19.7956 23.3833 19.606C21.5672 19.8978 19.7439 20.146 17.9061 20.2626C16.0463 20.3792 14.1718 20.4522 12.3049 20.3282C11.7725 20.2773 11.2254 20.2479 10.7296 20.0436C10.6127 19.9926 10.4522 19.8907 10.5105 19.7373C10.62 19.5404 10.8388 19.4457 11.0284 19.3436C11.8308 18.9643 12.7059 18.7529 13.5593 18.5049C12.0932 18.4829 10.6345 18.8548 9.29284 19.4311C8.99372 19.577 8.65827 19.6936 8.41769 19.9416C8.32265 20.0435 8.32265 20.2189 8.43216 20.3062C8.65101 20.5031 8.94257 20.5906 9.21989 20.6707ZM21.035 22.6766C19.7586 22.9027 18.4748 23.1144 17.1838 23.1798C15.769 23.2746 14.3541 23.1943 12.9539 23.0485C12.6841 23.012 12.4142 22.9684 12.1736 22.8444C12.0496 22.7714 11.9257 22.6548 11.933 22.5014C11.9475 22.2608 12.1516 22.0932 12.2976 21.9181C11.8455 22.0786 11.3933 22.2461 11.014 22.5455C10.8534 22.6695 10.6931 22.8662 10.7367 23.085C10.8026 23.3403 11.0505 23.4934 11.2693 23.61C11.8089 23.8873 12.4142 24.0112 13.0052 24.1206C14.5 24.3614 16.0243 24.3687 17.5267 24.2664C19.117 24.1425 20.6994 23.88 22.2382 23.4277C21.8007 23.231 21.3849 23.0046 21.035 22.6766ZM13.0196 25.2003C12.6112 25.3169 12.1954 25.4555 11.86 25.7251C11.692 25.8564 11.5609 26.0827 11.6412 26.2942C11.7433 26.564 11.9986 26.7247 12.2391 26.8628C12.8665 27.2059 13.5738 27.3661 14.2666 27.4903C15.8349 27.7381 17.4465 27.7017 19.0073 27.4246C19.9335 27.2495 20.8598 27.0015 21.7203 26.6152C21.1587 26.3817 20.6119 26.1191 20.0868 25.8129C19.1751 25.9733 18.256 26.1412 17.3225 26.1995C16.0901 26.2943 14.8428 26.1921 13.6103 26.039C13.3185 25.9733 12.9539 25.9442 12.757 25.6889C12.6551 25.4772 12.8883 25.324 13.0196 25.2003ZM22.9967 29.8896C24.0177 29.6784 25.0462 29.4373 25.9796 28.9634C26.2712 28.7954 26.6286 28.6131 26.7237 28.2632C26.7746 27.9278 26.4245 27.7527 26.1766 27.614C26.3297 27.7894 26.4318 28.0445 26.2785 28.2486C26.0232 28.5915 25.5859 28.7227 25.1992 28.854C23.9887 29.1968 22.7341 29.3354 21.487 29.474C18.1832 29.773 14.8574 29.846 11.5537 29.5688C10.4451 29.452 9.31446 29.3281 8.25702 28.9343C8.08944 28.8613 7.83415 28.7883 7.83415 28.5621C7.8996 28.3656 8.08944 28.2559 8.25702 28.1611C9.01552 27.7746 9.86155 27.563 10.7075 27.512C10.4598 27.3661 10.168 27.3516 9.88358 27.3589C9.17601 27.3808 8.48319 27.563 7.81235 27.7894C7.23614 28.0006 6.6454 28.2341 6.18579 28.6572C6.00351 28.8175 5.83593 29.1237 6.0253 29.3427C6.3171 29.6564 6.76938 29.7365 7.17022 29.8313C9.41659 30.2179 11.692 30.4364 13.9677 30.5168C16.9871 30.6045 20.0283 30.4732 22.9967 29.8896ZM25.987 30.2836C24.6157 30.7211 23.1937 30.9617 21.7786 31.1587C19.3355 31.465 16.8703 31.5598 14.4125 31.487C12.9174 31.4287 11.4224 31.3266 9.94903 31.0784C10.2918 31.3118 10.7149 31.3846 11.1088 31.4942C12.7645 31.8443 14.4636 31.9099 16.1485 31.9609C18.6206 32.0047 21.093 31.9099 23.5291 31.5233C24.6816 31.3194 25.8411 31.0713 26.8765 30.5315C27.4165 30.2471 27.9636 29.8093 28.058 29.175C27.5112 29.7583 26.7237 30.0283 25.987 30.2836Z" fill="#1E1E1E"/>
<path d="M13.3624 14.2091C13.0853 13.5965 12.961 12.8819 13.1727 12.2327C13.3844 11.569 13.8585 11.0366 14.3325 10.5406C15.6524 9.22045 17.2789 8.25049 18.5698 6.90863C19.2845 6.17193 19.8752 5.28945 20.0793 4.27561C20.2471 3.53176 20.167 2.766 20.0139 2.0293C20.6994 2.80971 20.9255 3.92557 20.7285 4.93209C20.5171 6.06248 19.8897 7.06162 19.1532 7.92219C18.5625 8.61518 17.8841 9.22777 17.1767 9.79678C16.3526 10.4605 15.5432 11.1751 15.0254 12.1087C14.5876 12.8671 14.4855 13.8007 14.7846 14.6248C15.2733 16.0396 16.4109 17.0899 17.031 18.4245C16.3452 17.8191 15.6744 17.192 15.047 16.5284C14.3908 15.8282 13.7708 15.0844 13.3624 14.2091ZM17.0819 13.1005C16.958 14.2602 17.5631 15.3541 18.2853 16.2148C18.6353 16.6013 18.9343 17.0753 18.9488 17.6151C18.9635 18.3369 18.5553 19.0081 18.0298 19.482C18.154 19.4676 18.2415 19.358 18.3436 19.2997C19.1313 18.7965 19.8896 18.162 20.2761 17.2943C20.5314 16.7035 20.4731 16.0032 20.1377 15.4561C19.7437 14.8143 19.2261 14.2454 18.9198 13.5454C18.7518 13.1516 18.6935 12.6921 18.8321 12.2764C19.0146 11.7149 19.4083 11.2554 19.8241 10.8542C20.9691 9.76766 22.3547 8.99428 23.6822 8.14842C22.0047 8.62971 20.3492 9.29346 18.9343 10.3365C18.0372 11.0074 17.2059 11.9409 17.0819 13.1005ZM25.0535 18.5851C25.8485 18.6289 26.6286 19.2123 26.7746 20.0146C26.9133 20.7075 26.5779 21.3929 26.1474 21.918C25.4399 22.764 24.4844 23.3694 23.522 23.8873C23.4269 23.9454 23.3468 24.0184 23.2738 24.0987C24.5429 23.7777 25.8118 23.2966 26.8403 22.4724C27.4089 21.9983 27.9122 21.3709 28.0217 20.6197C28.1238 19.9707 27.8541 19.2997 27.3726 18.8694C26.7891 18.3368 25.9652 18.1401 25.1919 18.2422C24.747 18.3005 24.2584 18.3953 23.9522 18.7673C24.317 18.6946 24.6741 18.5486 25.0535 18.5851ZM9.21989 20.6707C10.1751 20.926 11.1598 20.999 12.1371 21.0647C13.0123 21.123 13.8876 21.1377 14.7701 21.1303C17.0455 21.0941 19.3355 20.9407 21.5672 20.4448C21.7786 20.3939 22.0121 20.3574 22.2019 20.2261C22.5738 19.9853 22.982 19.7956 23.3833 19.606C21.5672 19.8978 19.7439 20.146 17.9061 20.2626C16.0463 20.3792 14.1718 20.4522 12.3049 20.3282C11.7725 20.2773 11.2254 20.2479 10.7296 20.0436C10.6127 19.9926 10.4522 19.8907 10.5105 19.7373C10.62 19.5404 10.8388 19.4457 11.0284 19.3436C11.8308 18.9643 12.7059 18.7529 13.5593 18.5049C12.0932 18.4829 10.6345 18.8548 9.29284 19.4311C8.99372 19.577 8.65827 19.6936 8.41769 19.9416C8.32265 20.0435 8.32265 20.2189 8.43216 20.3062C8.65101 20.5031 8.94257 20.5906 9.21989 20.6707ZM21.035 22.6766C19.7586 22.9027 18.4748 23.1144 17.1838 23.1798C15.769 23.2746 14.3541 23.1943 12.9539 23.0485C12.6841 23.012 12.4142 22.9684 12.1736 22.8444C12.0496 22.7714 11.9257 22.6548 11.933 22.5014C11.9475 22.2608 12.1516 22.0932 12.2976 21.9181C11.8455 22.0786 11.3933 22.2461 11.014 22.5455C10.8534 22.6695 10.6931 22.8662 10.7367 23.085C10.8026 23.3403 11.0505 23.4934 11.2693 23.61C11.8089 23.8873 12.4142 24.0112 13.0052 24.1206C14.5 24.3614 16.0243 24.3687 17.5267 24.2664C19.117 24.1425 20.6994 23.88 22.2382 23.4277C21.8007 23.231 21.3849 23.0046 21.035 22.6766ZM13.0196 25.2003C12.6112 25.3169 12.1954 25.4555 11.86 25.7251C11.692 25.8564 11.5609 26.0827 11.6412 26.2942C11.7433 26.564 11.9986 26.7247 12.2391 26.8628C12.8665 27.2059 13.5738 27.3661 14.2666 27.4903C15.8349 27.7381 17.4465 27.7017 19.0073 27.4246C19.9335 27.2495 20.8598 27.0015 21.7203 26.6152C21.1587 26.3817 20.6119 26.1191 20.0868 25.8129C19.1751 25.9733 18.256 26.1412 17.3225 26.1995C16.0901 26.2943 14.8428 26.1921 13.6103 26.039C13.3185 25.9733 12.9539 25.9442 12.757 25.6889C12.6551 25.4772 12.8883 25.324 13.0196 25.2003ZM22.9967 29.8896C24.0177 29.6784 25.0462 29.4373 25.9796 28.9634C26.2712 28.7954 26.6286 28.6131 26.7237 28.2632C26.7746 27.9278 26.4245 27.7527 26.1766 27.614C26.3297 27.7894 26.4318 28.0445 26.2785 28.2486C26.0232 28.5915 25.5859 28.7227 25.1992 28.854C23.9887 29.1968 22.7341 29.3354 21.487 29.474C18.1832 29.773 14.8574 29.846 11.5537 29.5688C10.4451 29.452 9.31446 29.3281 8.25702 28.9343C8.08944 28.8613 7.83415 28.7883 7.83415 28.5621C7.8996 28.3656 8.08944 28.2559 8.25702 28.1611C9.01552 27.7746 9.86155 27.563 10.7075 27.512C10.4598 27.3661 10.168 27.3516 9.88358 27.3589C9.17601 27.3808 8.48319 27.563 7.81235 27.7894C7.23614 28.0006 6.6454 28.2341 6.18579 28.6572C6.00351 28.8175 5.83593 29.1237 6.0253 29.3427C6.3171 29.6564 6.76938 29.7365 7.17022 29.8313C9.41659 30.2179 11.692 30.4364 13.9677 30.5168C16.9871 30.6045 20.0283 30.4732 22.9967 29.8896ZM25.987 30.2836C24.6157 30.7211 23.1937 30.9617 21.7786 31.1587C19.3355 31.465 16.8703 31.5598 14.4125 31.487C12.9174 31.4287 11.4224 31.3266 9.94903 31.0784C10.2918 31.3118 10.7149 31.3846 11.1088 31.4942C12.7645 31.8443 14.4636 31.9099 16.1485 31.9609C18.6206 32.0047 21.093 31.9099 23.5291 31.5233C24.6816 31.3194 25.8411 31.0713 26.8765 30.5315C27.4165 30.2471 27.9636 29.8093 28.058 29.175C27.5112 29.7583 26.7237 30.0283 25.987 30.2836Z" stroke="black" stroke-width="0.4" mask="url(#path-1-outside-1_2055_1513)"/>
</g>
<defs>
<clipPath id="clip0_2055_1513">
<rect width="30" height="30" fill="white" transform="translate(2 2)"/>
</clipPath>
</defs>
</svg>
