<svg width="13" height="18" viewBox="0 0 13 18" fill="none" xmlns="http://www.w3.org/2000/svg">
<path d="M5.19665 8.7353C4.90376 8.4424 4.42888 8.4424 4.13599 8.7353C3.8431 9.02819 3.8431 9.50307 4.13599 9.79596L5.19665 8.7353ZM5.96969 11.6297C6.26258 11.9226 6.73746 11.9226 7.03035 11.6297C7.32324 11.3368 7.32324 10.8619 7.03035 10.569L5.96969 11.6297ZM4.13599 12.403C3.8431 12.6959 3.8431 13.1707 4.13599 13.4636C4.42888 13.7565 4.90376 13.7565 5.19665 13.4636L4.13599 12.403ZM7.03035 11.6299C7.32324 11.337 7.32324 10.8622 7.03035 10.5693C6.73746 10.2764 6.26258 10.2764 5.96969 10.5693L7.03035 11.6299ZM8.86403 9.79596C9.15692 9.50307 9.15692 9.02819 8.86403 8.7353C8.57114 8.4424 8.09626 8.4424 7.80337 8.7353L8.86403 9.79596ZM5.96967 10.569C5.67678 10.8619 5.67678 11.3368 5.96967 11.6297C6.26256 11.9226 6.73744 11.9226 7.03033 11.6297L5.96967 10.569ZM7.80337 13.4636C8.09626 13.7565 8.57114 13.7565 8.86403 13.4636C9.15692 13.1707 9.15692 12.6959 8.86403 12.403L7.80337 13.4636ZM7.03033 10.5693C6.73744 10.2764 6.26256 10.2764 5.96967 10.5693C5.67678 10.8622 5.67678 11.337 5.96967 11.6299L7.03033 10.5693ZM8.43785 1.95039C8.85206 1.95039 9.18785 1.61461 9.18785 1.20039C9.18785 0.78618 8.85206 0.450394 8.43785 0.450394V1.95039ZM4.77155 0.450394C4.35733 0.450394 4.02155 0.78618 4.02155 1.20039C4.02155 1.61461 4.35733 1.95039 4.77155 1.95039V0.450394ZM12 4.14961C12.4142 4.14961 12.75 3.81383 12.75 3.39961C12.75 2.9854 12.4142 2.64961 12 2.64961V4.14961ZM1 2.64961C0.585786 2.64961 0.25 2.9854 0.25 3.39961C0.25 3.81383 0.585786 4.14961 1 4.14961V2.64961ZM1.80546 15.7942L1.27513 16.3245L1.27513 16.3245L1.80546 15.7942ZM1 13.8496H1.75H1ZM4.13599 9.79596L5.96969 11.6297L7.03035 10.569L5.19665 8.7353L4.13599 9.79596ZM5.19665 13.4636L7.03035 11.6299L5.96969 10.5693L4.13599 12.403L5.19665 13.4636ZM7.80337 8.7353L5.96967 10.569L7.03033 11.6297L8.86403 9.79596L7.80337 8.7353ZM8.86403 12.403L7.03033 10.5693L5.96967 11.6299L7.80337 13.4636L8.86403 12.403ZM8.43785 0.450394H4.77155V1.95039H8.43785V0.450394ZM12 2.64961H1V4.14961H12V2.64961ZM1.9163 6.34961H11.0837V4.84961H1.9163V6.34961ZM11.0837 6.34961C11.1755 6.34961 11.25 6.42407 11.25 6.51591H12.75C12.75 5.59564 12.004 4.84961 11.0837 4.84961V6.34961ZM11.25 6.51591V13.8496H12.75V6.51591H11.25ZM11.25 13.8496C11.25 14.9542 10.3546 15.8496 9.25 15.8496V17.3496C11.183 17.3496 12.75 15.7826 12.75 13.8496H11.25ZM9.25 15.8496H3.75V17.3496H9.25V15.8496ZM3.75 15.8496C3.21957 15.8496 2.71086 15.6389 2.33579 15.2638L1.27513 16.3245C1.9315 16.9809 2.82174 17.3496 3.75 17.3496V15.8496ZM2.33579 15.2638C1.96071 14.8888 1.75 14.38 1.75 13.8496H0.25C0.25 14.7779 0.618749 15.6681 1.27513 16.3245L2.33579 15.2638ZM1.75 13.8496V6.51591H0.25V13.8496H1.75ZM1.75 6.51591C1.75 6.42407 1.82446 6.34961 1.9163 6.34961V4.84961C0.996028 4.84961 0.25 5.59564 0.25 6.51591H1.75Z" fill="#C98A99"/>
</svg>
