<svg width="34" height="34" viewBox="0 0 34 34" fill="none" xmlns="http://www.w3.org/2000/svg">
<path d="M9.36824 12.9048C10.587 12.915 11.4702 13.2664 12.0178 13.9584C12.5654 14.6504 12.746 15.5955 12.5601 16.7939C12.4879 17.3415 12.3277 17.8785 12.0798 18.4053C11.8421 18.9321 11.5117 19.4072 11.0881 19.8308C10.5715 20.3679 10.019 20.7087 9.43022 20.8534C8.84143 20.9982 8.23188 21.0704 7.60187 21.0704H5.74253L5.15374 24.0143H3L5.21571 12.9048H9.36824ZM27.7374 12.9048C28.9562 12.915 29.8394 13.2664 30.387 13.9584C30.9345 14.6504 31.1152 15.5955 30.9293 16.7939C30.8571 17.3415 30.6969 17.8785 30.4489 18.4053C30.2113 18.9321 29.8809 19.4072 29.4573 19.8308C28.9407 20.3679 28.3882 20.7087 27.7994 20.8534C27.2106 20.9982 26.6011 21.0704 25.971 21.0704H24.1117L23.5229 24.0143H21.3692L23.5849 12.9048H27.7374ZM17.1517 9.94531L16.5475 12.9048H18.4688C19.5224 12.9255 20.3074 13.1424 20.8239 13.5555C21.3508 13.9686 21.5057 14.7539 21.2888 15.9107L20.2506 21.0704H18.0814L19.0731 16.1431C19.1763 15.6265 19.1453 15.2599 18.9801 15.043C18.8149 14.8261 18.4585 14.7176 17.911 14.7176L16.1911 14.7021L14.9205 21.0704H12.7823L15.0135 9.94531H17.1517ZM7.69483 14.6711C7.57088 14.6814 7.45218 14.6866 7.33846 14.6866L7.02544 14.6866L6.0989 19.3195C6.16088 19.3297 6.22286 19.335 6.28483 19.335H6.50176C7.49341 19.3452 8.31988 19.2473 8.98088 19.0406C9.64188 18.8237 10.0862 18.0697 10.3134 16.7784C10.4993 15.6938 10.3134 15.0687 9.7556 14.9036C9.20803 14.7384 8.52131 14.6609 7.69483 14.6711ZM26.064 14.6711C25.94 14.6814 25.8214 14.6866 25.7076 14.6866L25.3946 14.6866L24.4681 19.3195C24.53 19.3297 24.592 19.335 24.654 19.335H24.8709C25.8626 19.3452 26.689 19.2473 27.35 19.0406C28.011 18.8237 28.4554 18.0697 28.6826 16.7784C28.8685 15.6938 28.6826 15.0687 28.1248 14.9036C27.5772 14.7384 26.8905 14.6609 26.064 14.6711Z" fill="#1E1E1E"/>
</svg>
