<svg width="24" height="24" viewBox="0 0 24 24" fill="none" xmlns="http://www.w3.org/2000/svg">
<path fill-rule="evenodd" clip-rule="evenodd" d="M11.3 19C10.9334 19 10.6207 18.7347 10.561 18.373C10.5061 18.0804 10.2954 17.8413 10.012 17.75C9.78111 17.6707 9.55534 17.5772 9.33601 17.47C9.07502 17.3365 8.76194 17.3565 8.52001 17.522C8.22724 17.7325 7.82505 17.6999 7.57001 17.445L6.57801 16.453C6.31104 16.186 6.27635 15.7651 6.49601 15.458C6.66542 15.2105 6.68982 14.8914 6.56001 14.621C6.47448 14.4332 6.39904 14.2409 6.33401 14.045C6.24088 13.7363 5.98379 13.5051 5.66701 13.445C5.28499 13.384 5.00298 13.0559 5.00001 12.669V11.428C4.99798 10.9821 5.32005 10.6007 5.76001 10.528C6.09377 10.4645 6.37247 10.2359 6.50001 9.921C6.53801 9.83233 6.57801 9.74433 6.62001 9.657C6.78963 9.33044 6.7662 8.93711 6.55901 8.633C6.2999 8.27288 6.33968 7.77809 6.65301 7.464L7.38201 6.735C7.74156 6.37532 8.30862 6.32877 8.72201 6.625L8.74501 6.641C9.0537 6.84876 9.4465 6.88639 9.78901 6.741C10.1554 6.60911 10.4255 6.29424 10.5 5.912L10.51 5.878C10.5924 5.37197 11.0293 5.00021 11.542 5H12.422C12.9485 4.99976 13.3979 5.38057 13.484 5.9L13.5 5.97C13.5707 6.33617 13.8268 6.63922 14.176 6.77C14.5126 6.91447 14.8997 6.87674 15.202 6.67L15.252 6.634C15.6761 6.32834 16.2593 6.37535 16.629 6.745L17.3 7.417C17.6363 7.75516 17.6786 8.28693 17.4 8.674C17.1818 8.99752 17.1539 9.41325 17.327 9.763L17.37 9.863C17.5102 10.2045 17.8134 10.452 18.176 10.521C18.6499 10.5983 18.9984 11.0069 19 11.487V12.6C18.9999 13.0234 18.6937 13.3846 18.276 13.454C17.9325 13.5199 17.6527 13.7686 17.547 14.102C17.5003 14.2353 17.4483 14.3687 17.391 14.502C17.2576 14.795 17.2872 15.1364 17.469 15.402C17.709 15.7358 17.6717 16.1943 17.381 16.485L16.45 17.417C16.1838 17.6832 15.7639 17.7175 15.458 17.498C15.2027 17.3235 14.8719 17.3043 14.598 17.448C14.4029 17.5447 14.2026 17.6305 13.998 17.705C13.712 17.8037 13.5011 18.0485 13.446 18.346C13.3877 18.7203 13.0668 18.9972 12.688 19H11.3Z" stroke="black" stroke-width="1.5" stroke-linecap="round" stroke-linejoin="round"/>
<path fill-rule="evenodd" clip-rule="evenodd" d="M14.333 12C14.333 13.2885 13.2885 14.333 12 14.333C10.7115 14.333 9.66702 13.2885 9.66702 12C9.66702 10.7115 10.7115 9.66701 12 9.66701C13.2885 9.66701 14.333 10.7115 14.333 12Z" stroke="black" stroke-width="1.5" stroke-linecap="round" stroke-linejoin="round"/>
</svg>