<svg width="16" height="18" viewBox="0 0 16 18" fill="none" xmlns="http://www.w3.org/2000/svg">
<path fill-rule="evenodd" clip-rule="evenodd" d="M1 7V13C1 15.2091 2.79086 17 5 17H11C13.2091 17 15 15.2091 15 13V7C15 4.79086 13.2091 3 11 3H5C2.79086 3 1 4.79086 1 7Z" stroke="#969696" stroke-width="1.5" stroke-linecap="round" stroke-linejoin="round"/>
<path d="M10.25 4C10.25 4.41421 10.5858 4.75 11 4.75C11.4142 4.75 11.75 4.41421 11.75 4H10.25ZM11.75 1C11.75 0.585786 11.4142 0.25 11 0.25C10.5858 0.25 10.25 0.585786 10.25 1H11.75ZM4.25 4C4.25 4.41421 4.58579 4.75 5 4.75C5.41421 4.75 5.75 4.41421 5.75 4H4.25ZM5.75 1C5.75 0.585786 5.41421 0.25 5 0.25C4.58579 0.25 4.25 0.585786 4.25 1H5.75ZM4.25 8.286C4.25 8.70021 4.58579 9.036 5 9.036C5.41421 9.036 5.75 8.70021 5.75 8.286H4.25ZM8 8.286L8.74867 8.3306C8.74956 8.31575 8.75 8.30088 8.75 8.286H8ZM7.36372 9.56742L7.85177 10.1369H7.85177L7.36372 9.56742ZM6 10L5.92945 9.25333C5.54428 9.28972 5.25 9.61312 5.25 10C5.25 10.3869 5.54428 10.7103 5.92945 10.7467L6 10ZM7.36372 10.4326L7.85177 9.8631L7.36372 10.4326ZM8 11.714H8.75C8.75 11.6991 8.74956 11.6843 8.74867 11.6694L8 11.714ZM5.75 11.714C5.75 11.2998 5.41421 10.964 5 10.964C4.58579 10.964 4.25 11.2998 4.25 11.714H5.75ZM9.51195 7.28752C9.19744 7.55706 9.16098 8.03053 9.43052 8.34505C9.70006 8.65956 10.1735 8.69602 10.488 8.42648L9.51195 7.28752ZM11 7H11.75C11.75 6.70711 11.5795 6.44102 11.3134 6.31863C11.0473 6.19623 10.7343 6.23993 10.512 6.43052L11 7ZM10.25 13C10.25 13.4142 10.5858 13.75 11 13.75C11.4142 13.75 11.75 13.4142 11.75 13H10.25ZM11.75 4V1H10.25V4H11.75ZM5.75 4V1H4.25V4H5.75ZM5.75 8.286C5.75 8.10494 5.81731 7.99917 5.92323 7.91849C6.05001 7.82191 6.25645 7.7505 6.5 7.7505C6.74355 7.7505 6.94999 7.82191 7.07677 7.91849C7.18269 7.99917 7.25 8.10494 7.25 8.286H8.75C8.75 7.61006 8.44231 7.07308 7.98573 6.72527C7.55001 6.39334 7.00645 6.2505 6.5 6.2505C5.99355 6.2505 5.44999 6.39334 5.01427 6.72527C4.55769 7.07308 4.25 7.61006 4.25 8.286H5.75ZM7.25133 8.2414C7.23389 8.53409 7.09831 8.80714 6.87568 8.99793L7.85177 10.1369C8.38333 9.68135 8.70704 9.02942 8.74867 8.3306L7.25133 8.2414ZM6.87568 8.99793C6.65304 9.18873 6.36246 9.28091 6.07055 9.25333L5.92945 10.7467C6.6264 10.8125 7.32021 10.5924 7.85177 10.1369L6.87568 8.99793ZM6.07055 10.7467C6.36246 10.7191 6.65304 10.8113 6.87568 11.0021L7.85177 9.8631C7.32021 9.40755 6.6264 9.18747 5.92945 9.25333L6.07055 10.7467ZM6.87568 11.0021C7.09831 11.1929 7.23389 11.4659 7.25133 11.7586L8.74867 11.6694C8.70704 10.9706 8.38333 10.3186 7.85177 9.8631L6.87568 11.0021ZM7.25 11.714C7.25 11.8951 7.18269 12.0008 7.07677 12.0815C6.94999 12.1781 6.74355 12.2495 6.5 12.2495C6.25645 12.2495 6.05001 12.1781 5.92323 12.0815C5.81731 12.0008 5.75 11.8951 5.75 11.714H4.25C4.25 12.3899 4.55769 12.9269 5.01427 13.2747C5.44999 13.6067 5.99355 13.7495 6.5 13.7495C7.00645 13.7495 7.55001 13.6067 7.98573 13.2747C8.44231 12.9269 8.75 12.3899 8.75 11.714H7.25ZM10.488 8.42648L11.488 7.56948L10.512 6.43052L9.51195 7.28752L10.488 8.42648ZM10.25 7V13H11.75V7H10.25Z" fill="#969696"/>
</svg>
